<?xml version="1.0" encoding="UTF-8"?>
<!DOCTYPE svg PUBLIC "-//W3C//DTD SVG 1.1//EN" "http://www.w3.org/Graphics/SVG/1.1/DTD/svg11.dtd">
<svg xmlns="http://www.w3.org/2000/svg" version="1.1" width="1000px" height="174px" style="shape-rendering:geometricPrecision; text-rendering:geometricPrecision; image-rendering:optimizeQuality; fill-rule:evenodd; clip-rule:evenodd" xmlns:xlink="http://www.w3.org/1999/xlink">
<g><path style="opacity:0.992" fill="#e80a51" d="M 35.5,13.5 C 57.8333,13.5 80.1667,13.5 102.5,13.5C 103.604,36.7893 95.2711,55.9559 77.5,71C 71.8333,71.6667 66.1667,71.6667 60.5,71C 48.6926,60.2219 40.8593,47.0552 37,31.5C 35.9283,25.5453 35.4283,19.5453 35.5,13.5 Z"/></g>
<g><path style="opacity:0.949" fill="#fefffe" d="M 167.5,22.5 C 209.167,22.5 250.833,22.5 292.5,22.5C 292.5,30.5 292.5,38.5 292.5,46.5C 275.5,46.5 258.5,46.5 241.5,46.5C 241.5,81.1667 241.5,115.833 241.5,150.5C 233.5,150.5 225.5,150.5 217.5,150.5C 217.5,115.833 217.5,81.1667 217.5,46.5C 200.833,46.5 184.167,46.5 167.5,46.5C 167.5,38.5 167.5,30.5 167.5,22.5 Z"/></g>
<g><path style="opacity:0.948" fill="#fefffe" d="M 882.5,22.5 C 919.215,22.0255 955.882,22.5255 992.5,24C 998.537,28.6376 1000.04,34.4709 997,41.5C 971.463,69.3688 946.296,97.5355 921.5,126C 946.831,126.5 972.164,126.667 997.5,126.5C 997.5,134.5 997.5,142.5 997.5,150.5C 962.165,150.667 926.832,150.5 891.5,150C 882.126,146.218 879.626,139.718 884,130.5C 909.167,102.667 934.333,74.8333 959.5,47C 933.835,46.5 908.169,46.3334 882.5,46.5C 882.5,38.5 882.5,30.5 882.5,22.5 Z"/></g>
<g><path style="opacity:0.916" fill="#e20952" d="M 112.5,-0.5 C 117.167,-0.5 121.833,-0.5 126.5,-0.5C 138.471,6.36874 141.304,16.0354 135,28.5C 129.11,33.8633 122.61,38.3633 115.5,42C 105.315,49.8882 101.981,59.8882 105.5,72C 111.872,74.8142 115.872,72.8142 117.5,66C 116.833,65 116.167,64 115.5,63C 112.644,64.7855 109.311,65.6189 105.5,65.5C 104.959,59.0385 107.959,55.7051 114.5,55.5C 121.022,55.8573 124.356,59.3573 124.5,66C 123.162,76.6721 117.162,81.3388 106.5,80C 99.8787,77.9315 96.212,73.4315 95.5,66.5C 96.1841,55.3007 100.517,45.8007 108.5,38C 115.419,33.6243 122.252,29.1243 129,24.5C 133.343,14.5196 130.177,8.1863 119.5,5.5C 114.53,6.5654 110.697,9.23207 108,13.5C 105.876,12.3783 104.043,10.8783 102.5,9C 105.072,4.92556 108.405,1.75889 112.5,-0.5 Z"/></g>
<g><path style="opacity:0.953" fill="#fefffe" d="M 324.5,53.5 C 341.868,53.1219 359.201,53.6219 376.5,55C 390.987,59.4913 398.82,69.3247 400,84.5C 400.667,96.5 400.667,108.5 400,120.5C 398.176,138.324 388.343,148.157 370.5,150C 354.5,150.667 338.5,150.667 322.5,150C 306.538,148.036 297.038,139.203 294,123.5C 293.079,107.454 293.412,91.4543 295,75.5C 300.422,62.2098 310.255,54.8765 324.5,53.5 Z M 324.5,77.5 C 340.571,77.0456 356.571,77.5456 372.5,79C 374.487,80.3189 375.654,82.1523 376,84.5C 376.941,97.2372 376.607,109.904 375,122.5C 373.681,124.487 371.848,125.654 369.5,126C 354.5,126.667 339.5,126.667 324.5,126C 321.107,125.606 318.94,123.773 318,120.5C 317.333,108.167 317.333,95.8333 318,83.5C 319.113,80.2186 321.28,78.2186 324.5,77.5 Z"/></g>
<g><path style="opacity:0.947" fill="#fefffe" d="M 417.5,53.5 C 425.5,53.5 433.5,53.5 441.5,53.5C 441.333,73.5028 441.5,93.5028 442,113.5C 444.58,120.873 449.746,125.04 457.5,126C 471.496,126.5 485.496,126.667 499.5,126.5C 499.5,102.167 499.5,77.8333 499.5,53.5C 507.5,53.5 515.5,53.5 523.5,53.5C 523.667,83.1685 523.5,112.835 523,142.5C 521.271,146.785 518.105,149.285 513.5,150C 492.137,150.904 470.803,150.571 449.5,149C 432.991,144.491 422.491,133.991 418,117.5C 417.5,96.1693 417.333,74.8359 417.5,53.5 Z"/></g>
<g><path style="opacity:0.945" fill="#fefffe" d="M 575.5,53.5 C 593.167,53.5 610.833,53.5 628.5,53.5C 628.5,61.5 628.5,69.5 628.5,77.5C 610.497,77.3334 592.497,77.5001 574.5,78C 572.152,78.3459 570.319,79.5125 569,81.5C 567.521,104.409 567.021,127.409 567.5,150.5C 559.5,150.5 551.5,150.5 543.5,150.5C 543.039,125.781 543.539,101.115 545,76.5C 550.15,62.1836 560.317,54.517 575.5,53.5 Z"/></g>
<g><path style="opacity:0.947" fill="#fefffe" d="M 653.5,53.5 C 674.53,53.1116 695.53,53.6116 716.5,55C 733.257,58.7576 743.757,68.9243 748,85.5C 749.406,107.134 749.906,128.801 749.5,150.5C 741.5,150.5 733.5,150.5 725.5,150.5C 725.667,131.83 725.5,113.164 725,94.5C 723.5,85 718,79.5 708.5,78C 694.504,77.5001 680.504,77.3334 666.5,77.5C 666.5,101.833 666.5,126.167 666.5,150.5C 658.5,150.5 650.5,150.5 642.5,150.5C 642.333,121.165 642.5,91.8314 643,62.5C 644.859,57.467 648.359,54.467 653.5,53.5 Z"/></g>
<g><path style="opacity:0.952" fill="#fefffe" d="M 784.5,53.5 C 801.837,53.3334 819.17,53.5001 836.5,54C 853.074,54.9122 863.241,63.4122 867,79.5C 867.667,94.1667 867.667,108.833 867,123.5C 864.901,136.266 857.734,144.766 845.5,149C 827.535,150.567 809.535,150.9 791.5,150C 767.343,145.215 758.176,130.715 764,106.5C 768.026,96.4708 775.193,89.9708 785.5,87C 802.163,86.5001 818.83,86.3334 835.5,86.5C 835.5,93.8333 835.5,101.167 835.5,108.5C 820.095,108.048 804.762,108.548 789.5,110C 783.12,115.393 783.12,120.726 789.5,126C 797.928,127.122 806.428,127.622 815,127.5C 823.572,127.622 832.072,127.122 840.5,126C 842.049,124.786 843.215,123.286 844,121.5C 844.667,108.5 844.667,95.5 844,82.5C 842.74,79.5719 840.573,77.7386 837.5,77C 819.836,76.5001 802.17,76.3334 784.5,76.5C 784.5,68.8333 784.5,61.1667 784.5,53.5 Z"/></g>
<g><path style="opacity:0.94" fill="#ed0a50" d="M 12.5,-0.5 C 17.1667,-0.5 21.8333,-0.5 26.5,-0.5C 30.5949,1.75889 33.9282,4.92556 36.5,9C 34.7585,10.6196 32.9252,12.1196 31,13.5C 24.3337,3.89071 17.0004,3.22405 9,11.5C 6.23745,17.5849 7.40412,22.7515 12.5,27C 22.8948,31.5968 31.3948,38.4301 38,47.5C 42.9565,56.5956 43.6231,65.9289 40,75.5C 32.0128,82.4597 24.3462,82.1264 17,74.5C 13.2829,68.2141 13.7829,62.3807 18.5,57C 27.1716,53.6637 32.1716,56.4971 33.5,65.5C 29.9267,65.9588 26.9267,64.9588 24.5,62.5C 21.1538,64.5616 20.6538,67.2282 23,70.5C 27.2943,74.601 31.2943,74.2676 35,69.5C 36.0095,58.3475 32.1762,49.1808 23.5,42C 17.9979,38.4145 12.3312,35.0812 6.5,32C -1.5,22.3333 -1.5,12.6667 6.5,3C 8.43191,1.5415 10.4319,0.374833 12.5,-0.5 Z"/></g>
<g><path style="opacity:0.939" fill="#e30952" d="M 72.5,76.5 C 74.1439,76.2865 75.6439,76.6198 77,77.5C 80.607,88.3217 84.607,98.9884 89,109.5C 98.5827,115.041 108.083,120.707 117.5,126.5C 120.147,138.383 122.147,150.383 123.5,162.5C 118.167,162.5 112.833,162.5 107.5,162.5C 106.878,152.155 106.044,141.822 105,131.5C 97.312,124.816 89.312,118.483 81,112.5C 77.849,100.563 75.0157,88.5634 72.5,76.5 Z"/></g>
<g><path style="opacity:0.978" fill="#e70952" d="M 68.5,84.5 C 71.3741,92.8544 73.3741,101.521 74.5,110.5C 69.1254,110.828 63.7921,110.495 58.5,109.5C 61.5721,101.028 64.9054,92.695 68.5,84.5 Z"/></g>
<g><path style="opacity:0.973" fill="#e20953" d="M 95.5,89.5 C 103.611,89.0648 111.611,89.5648 119.5,91C 126.27,98.6116 125.937,105.945 118.5,113C 105.202,114.86 99.8686,109.027 102.5,95.5C 100.167,95.5 97.8333,95.5 95.5,95.5C 95.5,93.5 95.5,91.5 95.5,89.5 Z"/></g>
<g><path style="opacity:0.961" fill="#ee0a50" d="M 14.5,92.5 C 27.9921,91.1652 33.1588,97.1652 30,110.5C 28.395,114.276 25.5616,116.276 21.5,116.5C 21.5,118.833 21.5,121.167 21.5,123.5C 19.1667,123.5 16.8333,123.5 14.5,123.5C 14.6641,120.813 14.4974,118.146 14,115.5C 10.1867,112.932 8.35332,109.265 8.5,104.5C 8.4219,99.3678 10.4219,95.3678 14.5,92.5 Z"/></g>
<g><path style="opacity:0.944" fill="#e70952" d="M 56.5,115.5 C 63.5079,115.334 70.5079,115.5 77.5,116C 80.6928,117.026 82.0262,119.192 81.5,122.5C 73.1667,122.5 64.8333,122.5 56.5,122.5C 56.5,120.167 56.5,117.833 56.5,115.5 Z"/></g>
<g><path style="opacity:0.008" fill="#fe007e" d="M 50.5,121.5 C 51.8333,122.167 51.8333,122.167 50.5,121.5 Z"/></g>
<g><path style="opacity:0.975" fill="#ed0a51" d="M 61.5,77.5 C 62.9778,77.238 64.3112,77.5713 65.5,78.5C 60.9021,89.7936 56.4021,101.127 52,112.5C 45.0466,120.909 38.2133,129.409 31.5,138C 29.1902,138.497 26.8568,138.663 24.5,138.5C 24.5,145.5 24.5,152.5 24.5,159.5C 18.5,159.5 12.5,159.5 6.5,159.5C 7.51481,148.396 9.18148,137.396 11.5,126.5C 18.5805,125.929 25.5805,125.095 32.5,124C 37.3333,119.167 42.1667,114.333 47,109.5C 52.1193,98.9306 56.9526,88.2639 61.5,77.5 Z"/></g>
<g><path style="opacity:1" fill="#e70951" d="M 50.5,127.5 C 62.8333,127.5 75.1667,127.5 87.5,127.5C 87.5,130.833 87.5,134.167 87.5,137.5C 75.1667,137.5 62.8333,137.5 50.5,137.5C 50.5,134.167 50.5,130.833 50.5,127.5 Z"/></g>
<g><path style="opacity:0.97" fill="#ee0a50" d="M 24.5,173.5 C 18.1667,173.5 11.8333,173.5 5.5,173.5C 5.5,170.5 5.5,167.5 5.5,164.5C 11.8333,164.5 18.1667,164.5 24.5,164.5C 24.5,167.5 24.5,170.5 24.5,173.5 Z"/></g>
<g><path style="opacity:0.953" fill="#e10a52" d="M 124.5,173.5 C 119.167,173.5 113.833,173.5 108.5,173.5C 108.5,171.5 108.5,169.5 108.5,167.5C 113.833,167.5 119.167,167.5 124.5,167.5C 124.5,169.5 124.5,171.5 124.5,173.5 Z"/></g>
</svg>
